<!-- <svg xmlns="http://www.w3.org/2000/svg" viewBox="0 0 100 100">
  <path fill="currentColor" d="M50 0L15 20v45c0 8.284 6.716 15 15 15h10v10l10-10h10c8.284 0 15-6.716 15-15V20L50 0zm0 10.364L76 25 50 39.636 24 25 50 10.364zM25 30h50v35c0 5.514-4.486 10-10 10H45.719L40 79.281V75H35c-5.514 0-10-4.486-10-10V30zm32.5-3.5L50 25l7.5-3.5zm-5 1.5L42.5 25l7.5 3.5zm0 0L42.5 25l7.5 3.5zm-5 1.5L35 25l7.5 3.5z"/>
</svg> -->


<!-- Graduation cap + chat bubble icon (exact-style recreation) -->
<svg xmlns="http://www.w3.org/2000/svg"
     viewBox="0 0 64 64"
     width="64" height="64"
     role="img"
     aria-label="Graduation cap chat icon">
  <!-- single fill so it behaves like a solid icon -->
  <g fill="#0b2540" fill-rule="evenodd">
    <!-- mortarboard — top (slanted diamond-like) -->
    <path d="M32 6.5c-0.9 0.3-18.8 6.8-20.4 7.8-1.4 0.9-1.6 2.8-0.2 3.9 1.4 1.1 18.5 9.8 19.6 10.2 1.1 0.4 2.7 0.4 3.8 0 1.1-0.4 18.7-9.1 19.9-10.1 1.2-1.0 1.0-2.9-0.4-3.8C50.8 13.4 33.0 6.8 32 6.5z"/>
    <!-- mortarboard base (cap body under the top) -->
    <path d="M18.8 24.6c-0.6 0.35-1.0 1.1-1.0 1.9v5.2c0 1.6 1.8 3.1 3.6 3.1h20.1c1.8 0 3.3-1.5 3.3-3.1v-5.3c0-0.9-0.5-1.6-1.2-1.9l-13.9 5.2-10.9-5.1z"/>
    <!-- tassel stem and knot -->
    <path d="M43.6 12.3c-0.3-0.1-0.6-0.05-0.9 0.1l-1.9 0.8a0.75 0.75 0 0 0-.4.8c0 .4.3.7.7.8l0.9 0.2c0.5 0.1 1.0 0 1.4-0.3l1.2-0.8c0.4-0.3 0.5-0.8 0.2-1.2-.2-.3-.6-.5-1.2-.6z" transform="translate(-2 2)"/>
    <!-- tassel string -->
    <path d="M38.9 16.0c-0.2 0.3-0.4 0.8-0.3 1.2 0.2 0.8 0.8 3.7 0.9 4.4 0.2 1.2-0.7 1.5-1.3 1.5-0.6 0-1.6-0.3-1.6-1.6 0-1.3 0.6-3.2 0.9-4.1.3-0.9 0.4-1.6 0.4-1.6l1.0 0.2z"/>
    <!-- chat bubble rounded rectangle -->
    <path d="M6 36.5c0-7.5 6.1-13.6 13.6-13.6h24.8c7.5 0 13.6 6.1 13.6 13.6 0 7.5-6.1 13.6-13.6 13.6H26.5L16 58 16.3 52.9H19.6C13.1 52.9 6 45.8 6 39.3V36.5z"/>
    <!-- tail overlap smoothing (subtle) -->
    <path d="M26.3 47.4l-9.6 7.3v-7.3H26.3z" opacity="0.03"/>
  </g>
</svg>
